<svg aria-hidden="true" style="position:absolute;width:0;height:0" xmlns="http://www.w3.org/2000/svg" overflow="hidden"><defs><symbol id="mail" viewBox="0 0 47 32"><path fill="var()" d="M42.182 0H4.364C1.958 0 0 1.77 0 3.947v23.679c0 2.176 1.957 3.947 4.364 3.947h37.818c2.406 0 4.364-1.77 4.364-3.947V3.947C46.546 1.771 44.588 0 42.182 0zm0 2.631c.198 0 .385.037.557.102L23.273 17.992 3.806 2.733c.172-.065.36-.102.558-.102h37.818zm0 26.31H4.364c-.803 0-1.455-.59-1.455-1.316V5.512l19.41 15.215c.274.215.614.321.953.321s.679-.107.953-.321l19.41-15.215v22.113c0 .726-.652 1.315-1.455 1.315z"/></symbol><symbol id="hone" viewBox="0 0 21 32"><path fill="var()" d="M18.133 0H3.2C1.435 0 0 1.298 0 2.894v25.083c0 1.596 1.435 2.894 3.2 2.894h14.933c1.765 0 3.2-1.298 3.2-2.894V2.894c0-1.596-1.435-2.894-3.2-2.894zM3.2 1.929h14.933c.589 0 1.067.432 1.067.965v20.259H2.133V2.894c0-.532.478-.965 1.067-.965zm14.933 27.012H3.2c-.589 0-1.067-.432-1.067-.965v-2.894H19.2v2.894c0 .532-.478.965-1.067.965z"/><path fill="var(--color1, #757575)" d="M5.021 26.33c.417.377.417.988 0 1.364s-1.092.377-1.508 0c-.417-.377-.417-.988 0-1.364s1.092-.377 1.508 0z"/></symbol></defs></svg>